<svg width="30" height="30" viewBox="0 0 30 30" fill="none" xmlns="http://www.w3.org/2000/svg">
<g clip-path="url(#clip0_545_6)">
<path d="M14.4943 18.4762C17.1797 19.1344 21.2191 20.7361 26.1368 24.5872V3.21871C21.2191 7.06856 17.1797 8.6709 14.4943 9.32961V18.4762ZM10.3595 28.0779L10.3259 28.0385L10.2859 27.9731C9.9133 27.3386 9.43529 26.0182 9.27635 23.3262V23.3109V20.2487H6.56381H5.0268V29.8792H9.33581C9.34935 29.8792 9.36463 29.8751 9.38112 29.8745L9.43411 29.8686L9.51064 29.8733C9.5283 29.8733 9.54418 29.8763 9.55713 29.8786C9.84339 29.8714 10.1156 29.7529 10.3158 29.5482C10.5161 29.3436 10.6287 29.0689 10.6297 28.7825C10.6278 28.595 10.5771 28.4112 10.4825 28.2492C10.447 28.1883 10.4058 28.131 10.3595 28.0779ZM-0.000976562 11.4188V16.3918C0.00166222 17.0513 0.265002 17.683 0.731582 18.1492C1.19816 18.6153 1.83014 18.8781 2.48966 18.8801H13.1239V8.93168H2.49085C1.83143 8.93338 1.19945 9.19584 0.732839 9.66179C0.266226 10.1277 0.00284956 10.7594 0.000209098 11.4188H-0.000976562ZM29.4139 0.120578H28.0923C27.9378 0.123006 27.7902 0.185494 27.6809 0.294816C27.5716 0.404138 27.5091 0.551709 27.5066 0.706294V27.1043C27.508 27.259 27.5703 27.4069 27.6799 27.5161C27.7895 27.6252 27.9376 27.6869 28.0923 27.6876H29.4139C29.5688 27.6873 29.7172 27.6256 29.8267 27.516C29.9361 27.4065 29.9977 27.258 29.9978 27.1031V0.702171C29.9971 0.547573 29.9355 0.399488 29.8265 0.289894C29.7175 0.1803 29.5697 0.117999 29.4151 0.116455L29.4139 0.120578Z" fill="#FF9B51"/>
</g>
<defs>
<clipPath id="clip0_545_6">
<rect width="30" height="30" fill="white"/>
</clipPath>
</defs>
</svg>
