<svg width="50" height="50" viewBox="0 0 50 50" fill="none" xmlns="http://www.w3.org/2000/svg">
<g clip-path="url(#clip0_590_8)">
<path d="M46.7012 10.1345V15.9939C46.7012 20.8767 44.748 22.8298 39.8652 22.8298H34.0059C29.123 22.8298 27.1699 20.8767 27.1699 15.9939V10.1345C27.1699 5.25169 29.123 3.29858 34.0059 3.29858H39.8652C44.748 3.29858 46.7012 5.25169 46.7012 10.1345Z" stroke="black" stroke-width="5" stroke-linecap="round" stroke-linejoin="round"/>
<path d="M22.8301 34.0061V39.8655C22.8301 44.7483 20.877 46.7014 15.9941 46.7014H10.1348C5.25195 46.7014 3.29883 44.7483 3.29883 39.8655V34.0061C3.29883 29.1233 5.25195 27.1702 10.1348 27.1702H15.9941C20.877 27.1702 22.8301 29.1233 22.8301 34.0061Z" stroke="black" stroke-width="5" stroke-linecap="round" stroke-linejoin="round"/>
<path d="M36.6759 22.8301V28.5159C36.6759 34.3536 34.3538 36.6756 28.5162 36.6756H22.8304V34.0063C22.8304 29.1235 20.8773 27.1704 15.9945 27.1704H13.3252V21.4846C13.3252 15.647 15.6472 13.325 21.4849 13.325H27.1707V15.9942C27.1707 20.877 29.1238 22.8301 34.0066 22.8301H36.6759Z" fill="black" stroke="black" stroke-width="5" stroke-linecap="round" stroke-linejoin="round"/>
</g>
<defs>
<clipPath id="clip0_590_8">
<rect width="50" height="50" fill="white"/>
</clipPath>
</defs>
</svg>
