<svg width="30" height="30" viewBox="0 0 30 30" fill="none" xmlns="http://www.w3.org/2000/svg">
<g clip-path="url(#clip0_159_659)">
<path fill-rule="evenodd" clip-rule="evenodd" d="M0.869286 4.01745L3.5674 1.3268C4.31178 0.583367 5.52023 0.583367 6.26555 1.3268L10.3127 6.70807C10.9305 7.61839 11.0571 8.65526 10.3127 9.39869L8.66085 11.0459C9.88523 12.6865 11.3552 14.4752 13.0099 16.1252C14.8812 17.9909 16.9624 19.6868 18.8336 21.0799L20.4302 19.489C21.1746 18.7456 22.2143 18.8712 23.1284 19.489L28.5246 23.5249C29.4293 24.1484 29.2699 25.4721 28.5246 26.2156L25.8265 28.9053C24.3358 30.3921 22.398 29.9159 20.4302 28.9053C20.4302 28.9053 14.4743 25.5715 9.37522 20.4865C4.57897 15.7034 0.869286 9.39869 0.869286 9.39869C0.0958481 7.27713 -0.62134 5.50339 0.869286 4.01745Z" fill="white"/>
</g>
<defs>
<clipPath id="clip0_159_659">
<rect width="30" height="30" fill="white"/>
</clipPath>
</defs>
</svg>
