<svg width="30" height="30" viewBox="0 0 30 30" fill="none" xmlns="http://www.w3.org/2000/svg">
<path fill-rule="evenodd" clip-rule="evenodd" d="M0.869286 3.24823L3.5674 0.557578C4.31178 -0.185859 5.52023 -0.185859 6.26555 0.557578L10.3127 5.93885C10.9305 6.84916 11.0571 7.88603 10.3127 8.62947L8.66085 10.2766C9.88523 11.9173 11.3552 13.706 13.0099 15.356C14.8812 17.2216 16.9624 18.9176 18.8336 20.3107L20.4302 18.7198C21.1746 17.9763 22.2143 18.102 23.1284 18.7198L28.5246 22.7557C29.4293 23.3791 29.2699 24.7029 28.5246 25.4463L25.8265 28.136C24.3358 29.6229 22.398 29.1467 20.4302 28.136C20.4302 28.136 14.4743 24.8023 9.37522 19.7173C4.57897 14.9341 0.869286 8.62947 0.869286 8.62947C0.0958482 6.50791 -0.621339 4.73416 0.869286 3.24823Z" fill="#25343F"/>
</svg>
