<svg width="30" height="30" viewBox="0 0 30 30" fill="none" xmlns="http://www.w3.org/2000/svg">
<path d="M13.7437 5.85V10.7C13.7437 11.1016 13.6644 11.4992 13.5103 11.8701C13.3563 12.2409 13.1305 12.5777 12.8459 12.8611C12.5614 13.1445 12.2237 13.3689 11.8522 13.5214C11.4807 13.674 11.0828 13.7516 10.6812 13.75H5.85617C5.45567 13.7524 5.05881 13.674 4.68936 13.5193C4.31992 13.3647 3.98551 13.137 3.70617 12.85C3.42256 12.5688 3.19797 12.2337 3.04557 11.8645C2.89317 11.4953 2.81603 11.0994 2.81867 10.7V5.8625C2.81866 5.05575 3.13828 4.28186 3.70757 3.71023C4.27685 3.1386 5.04943 2.81581 5.85617 2.8125H10.6937C11.0938 2.81288 11.4898 2.89263 11.8588 3.04711C12.2279 3.2016 12.5626 3.42776 12.8437 3.7125C13.128 3.99123 13.3541 4.32378 13.5086 4.69076C13.6631 5.05774 13.743 5.45181 13.7437 5.85ZM27.1812 5.8625V10.7C27.1747 11.5047 26.853 12.2749 26.2851 12.8451C25.7172 13.4153 24.9484 13.7402 24.1437 13.75H19.2937C18.4852 13.7451 17.7101 13.4269 17.1312 12.8625C16.8483 12.5781 16.6243 12.2407 16.472 11.8696C16.3197 11.4986 16.2421 11.1011 16.2437 10.7V5.8625C16.2427 5.46221 16.3218 5.06577 16.4763 4.69652C16.6309 4.32728 16.8578 3.9927 17.1437 3.7125C17.4247 3.42776 17.7595 3.2016 18.1285 3.04711C18.4976 2.89263 18.8936 2.81288 19.2937 2.8125H24.1312C24.9381 2.81903 25.71 3.14247 26.2806 3.71305C26.8512 4.28362 27.1746 5.05561 27.1812 5.8625ZM27.1812 19.3V24.1375C27.1747 24.9422 26.853 25.7124 26.2851 26.2826C25.7172 26.8528 24.9484 27.1777 24.1437 27.1875H19.2937C18.48 27.1958 17.6952 26.8863 17.1062 26.325C16.8222 26.0414 16.5975 25.7042 16.4451 25.3329C16.2927 24.9617 16.2158 24.5638 16.2187 24.1625V19.325C16.2177 18.9247 16.2968 18.5283 16.4513 18.159C16.6059 17.7898 16.8328 17.4552 17.1187 17.175C17.3997 16.8903 17.7345 16.6641 18.1035 16.5096C18.4726 16.3551 18.8686 16.2754 19.2687 16.275H24.1062C24.9131 16.2815 25.685 16.605 26.2556 17.1755C26.8262 17.7461 27.1496 18.5181 27.1562 19.325L27.1812 19.3ZM13.7437 19.3125V24.15C13.7338 24.9569 13.4072 25.7275 12.8343 26.2958C12.2614 26.864 11.4881 27.1843 10.6812 27.1875H5.85617C5.45682 27.1892 5.06109 27.1117 4.69181 26.9597C4.32254 26.8076 3.98703 26.5839 3.70465 26.3015C3.42226 26.0191 3.19858 25.6836 3.04652 25.3144C2.89445 24.9451 2.81702 24.5494 2.81867 24.15V19.3125C2.82189 18.5056 3.14216 17.7323 3.7104 17.1593C4.27864 16.5864 5.0493 16.2598 5.85617 16.25H10.6937C11.5039 16.2583 12.2793 16.581 12.8562 17.15C13.4263 17.7251 13.7454 18.5027 13.7437 19.3125Z" fill="white"/>
</svg>
