<svg width="453" height="449" viewBox="0 0 453 449" fill="none" xmlns="http://www.w3.org/2000/svg">
<path d="M257.5 205.792H247.333V112.25H257.5C270.982 112.25 283.912 117.178 293.445 125.949C302.978 134.72 308.333 146.616 308.333 159.021C308.333 163.983 310.476 168.741 314.289 172.25C318.102 175.758 323.274 177.729 328.667 177.729C334.059 177.729 339.231 175.758 343.045 172.25C346.858 168.741 349 163.983 349 159.021C348.946 136.708 339.289 115.323 322.141 99.5459C304.993 83.7684 281.751 74.8828 257.5 74.8334H247.333V56.125C247.333 51.1633 245.191 46.4047 241.378 42.8962C237.565 39.3877 232.393 37.4167 227 37.4167C221.607 37.4167 216.435 39.3877 212.622 42.8962C208.809 46.4047 206.667 51.1633 206.667 56.125V74.8334H196.5C172.233 74.8334 148.959 83.7031 131.8 99.4913C114.64 115.28 105 136.693 105 159.021C105 181.349 114.64 202.762 131.8 218.55C148.959 234.339 172.233 243.208 196.5 243.208H206.667V336.75H196.5C183.018 336.75 170.089 331.822 160.555 323.051C151.022 314.28 145.667 302.384 145.667 289.979C145.667 285.017 143.524 280.259 139.711 276.75C135.898 273.242 130.726 271.271 125.333 271.271C119.941 271.271 114.769 273.242 110.955 276.75C107.142 280.259 105 285.017 105 289.979C105.054 312.292 114.711 333.677 131.859 349.454C149.007 365.232 172.249 374.117 196.5 374.167H206.667V392.875C206.667 397.837 208.809 402.595 212.622 406.104C216.435 409.612 221.607 411.583 227 411.583C232.393 411.583 237.565 409.612 241.378 406.104C245.191 402.595 247.333 397.837 247.333 392.875V374.167H257.5C281.767 374.167 305.041 365.297 322.2 349.509C339.36 333.72 349 312.307 349 289.979C349 267.651 339.36 246.238 322.2 230.45C305.041 214.661 281.767 205.792 257.5 205.792ZM196.5 205.792C183.018 205.792 170.089 200.864 160.555 192.093C151.022 183.322 145.667 171.425 145.667 159.021C145.667 146.616 151.022 134.72 160.555 125.949C170.089 117.178 183.018 112.25 196.5 112.25H206.667V205.792H196.5ZM257.5 336.75H247.333V243.208H257.5C270.982 243.208 283.912 248.136 293.445 256.907C302.978 265.678 308.333 277.575 308.333 289.979C308.333 302.384 302.978 314.28 293.445 323.051C283.912 331.822 270.982 336.75 257.5 336.75Z" fill="white"/>
</svg>
