<svg width="30" height="30" viewBox="0 0 30 30" fill="none" xmlns="http://www.w3.org/2000/svg">
<path d="M15.0607 0C6.74297 0 0 6.71555 0 15C0 23.2845 6.74297 30 15.0607 30C23.3785 30 30.1215 23.2845 30.1215 15C30.1215 6.71555 23.3785 0 15.0607 0ZM12.2179 22.195C12.2179 21.163 13.0581 20.3262 14.0942 20.3262C15.1296 20.3262 15.9697 21.163 15.9697 22.195C15.9697 23.2259 15.1296 24.0632 14.0942 24.0632C13.0581 24.0632 12.2179 23.2259 12.2179 22.195ZM20.2158 12.8234C20.0042 13.3972 19.698 13.895 19.3513 14.3091C18.6543 15.138 17.8283 15.6402 17.1485 16.0107C16.6944 16.2553 16.2935 16.4436 16.0443 16.5831C15.8734 16.6771 15.7808 16.7559 15.7351 16.8073C15.6899 16.8615 15.6746 16.8838 15.6471 16.9729C15.631 17.032 15.6143 17.1259 15.6143 17.2712C15.6143 17.6736 15.6143 18.0043 15.6143 18.0043C15.6143 18.3835 15.3055 18.6915 14.9246 18.6915H13.2625C12.8816 18.6915 12.5723 18.3835 12.5723 18.0043C12.5723 18.0043 12.5723 17.6735 12.5723 17.2712C12.5723 16.8939 12.6165 16.5244 12.7138 16.1709C12.81 15.8189 12.9618 15.4843 13.1555 15.1928C13.5437 14.602 14.0698 14.2083 14.5665 13.9342C15.0019 13.6955 15.4327 13.4974 15.8323 13.2732C16.2317 13.0509 16.5879 12.8097 16.8502 12.5483C17.026 12.3739 17.1626 12.1938 17.2671 11.9904C17.4045 11.7193 17.4998 11.4006 17.502 10.913C17.5027 10.7687 17.4609 10.5789 17.3471 10.3619C17.2338 10.1459 17.0491 9.91107 16.8021 9.70037C16.305 9.27568 15.5759 8.96531 14.7399 8.96672C13.7818 8.97012 13.1405 9.19383 12.6462 9.4718C12.1544 9.75164 11.9974 10.034 11.9974 10.034C11.7463 10.2519 11.3736 10.2596 11.1135 10.0524L9.83624 9.03305C9.67628 8.90572 9.58198 8.71441 9.57762 8.51004C9.57392 8.30619 9.66146 8.11102 9.81653 7.97689C9.81653 7.97689 10.2145 7.36576 11.1373 6.84135C12.0563 6.31447 13.2742 5.93385 14.7399 5.9373C15.9292 5.9373 17.0249 6.2632 17.9326 6.79635C18.8406 7.33236 19.5738 8.07041 20.0417 8.95705C20.3524 9.54732 20.5432 10.2127 20.5437 10.9129C20.5444 11.604 20.4289 12.2495 20.2158 12.8234Z" fill="white"/>
</svg>
