<svg width="30" height="30" viewBox="0 0 30 30" fill="none" xmlns="http://www.w3.org/2000/svg">
<g clip-path="url(#clip0_159_651)">
<path d="M12.729 13.7095L11.6682 13.9473C11.6391 13.9537 11.6279 13.9715 11.6343 14.0009L11.9306 15.3253C11.9371 15.3548 11.9548 15.3656 11.9839 15.3592L13.0455 15.1218C13.4992 15.0205 13.7446 14.6738 13.6494 14.2491C13.5525 13.8172 13.1835 13.6082 12.729 13.7095Z" fill="#FFFAFA"/>
<path d="M28.0985 15.5719C27.958 15.2037 27.958 14.7965 28.0985 14.4279L29.2392 11.4332C29.5089 10.7268 29.2489 9.92913 28.6168 9.51622L25.9333 7.76392C25.6031 7.54835 25.3642 7.21859 25.2608 6.83837L24.4237 3.74433C24.2258 3.01531 23.5469 2.52206 22.7929 2.55956L19.5919 2.71941C19.1979 2.7388 18.8113 2.61323 18.5036 2.36579L16.0081 0.355676C15.4196 -0.11864 14.5808 -0.11864 13.9923 0.355676L11.4969 2.36585C11.1893 2.61329 10.8026 2.73886 10.4086 2.71947L7.20758 2.55962C6.4536 2.52212 5.77461 3.01536 5.5768 3.74439L4.73973 6.83837C4.63637 7.21859 4.39742 7.54835 4.06725 7.76392L1.38377 9.51622C0.751662 9.92913 0.491682 10.7268 0.76051 11.4332L1.90203 14.4279C2.04248 14.7965 2.04248 15.2037 1.90203 15.5719L0.76051 18.567C0.491682 19.2726 0.751604 20.071 1.38377 20.484L4.06725 22.2362C4.39742 22.4514 4.63637 22.7808 4.73973 23.1614L5.57692 26.2551C5.77473 26.9848 6.45365 27.4777 7.2077 27.4402L10.4087 27.2803C10.8027 27.2605 11.1894 27.3864 11.497 27.6339L13.9924 29.6445C14.5809 30.1184 15.4197 30.1184 16.0082 29.6445L18.5036 27.6339C18.8113 27.3864 19.1979 27.2605 19.5919 27.2803L22.7929 27.4402C23.5469 27.4777 24.2258 26.9848 24.4237 26.2551L25.2608 23.1614C25.3642 22.7808 25.6031 22.4514 25.9333 22.2362L28.6168 20.484C29.2489 20.071 29.5089 19.2726 29.2392 18.567L28.0985 15.5719ZM9.81688 16.5976L7.89225 17.0279C7.86319 17.0343 7.85188 17.0521 7.85914 17.082L8.2959 19.0357C8.30563 19.0793 8.28219 19.1156 8.2386 19.1253L7.5217 19.286C7.47811 19.2957 7.44178 19.2727 7.43211 19.2291L6.35106 14.399C6.34139 14.355 6.36477 14.319 6.40836 14.3094L9.52537 13.6119C9.56985 13.6021 9.6053 13.6248 9.61584 13.6688L9.75629 14.2981C9.76602 14.3421 9.7434 14.3776 9.69899 14.3877L7.41588 14.8984C7.38682 14.9048 7.37557 14.923 7.38201 14.9524L7.66537 16.2183C7.67188 16.2474 7.68963 16.2587 7.71869 16.2522L9.64332 15.8219C9.68774 15.8118 9.72406 15.8348 9.73373 15.8784L9.87424 16.5077C9.88391 16.5516 9.86129 16.5875 9.81688 16.5976ZM15.3373 17.5369L14.5251 17.7189C14.467 17.7318 14.4323 17.7165 14.3991 17.6701L13.0139 15.9437L12.1573 16.135C12.1282 16.1415 12.117 16.1596 12.1234 16.1891L12.548 18.0843C12.5578 18.1282 12.5343 18.1642 12.4907 18.1739L11.7738 18.3345C11.7294 18.3442 11.6939 18.3212 11.6842 18.2776L10.6033 13.4475C10.5935 13.4039 10.6162 13.3675 10.6606 13.3578L12.5852 12.9275C13.4999 12.7224 14.3088 13.1794 14.505 14.0573C14.6511 14.7088 14.3904 15.2973 13.8672 15.6376L15.368 17.4302C15.4084 17.4751 15.389 17.5256 15.3373 17.5369ZM19.4207 16.6234L16.3037 17.3209C16.2601 17.3306 16.2237 17.308 16.214 17.264L15.1338 12.4339C15.1234 12.3899 15.1467 12.3544 15.1903 12.3447L18.3074 11.6472C18.3518 11.6371 18.3873 11.6601 18.3978 11.7037L18.5383 12.3334C18.548 12.3769 18.5254 12.4125 18.481 12.4225L16.1979 12.9332C16.1689 12.94 16.1576 12.9578 16.164 12.9872L16.4361 14.2018C16.4425 14.2313 16.4604 14.2426 16.4894 14.2362L18.414 13.8055C18.4584 13.7958 18.4939 13.8184 18.5045 13.8624L18.6449 14.4917C18.6546 14.5357 18.632 14.5716 18.5876 14.5813L16.663 15.012C16.6339 15.0184 16.6226 15.0362 16.6291 15.0656L16.9108 16.3242C16.9173 16.3533 16.9351 16.365 16.9641 16.3586L19.2472 15.8476C19.2917 15.8378 19.328 15.8605 19.3377 15.9045L19.4782 16.5338C19.4877 16.5774 19.465 16.6137 19.4207 16.6234ZM23.5929 15.6901L20.475 16.3876C20.4314 16.3973 20.3951 16.3747 20.3854 16.3307L19.3053 11.5006C19.2948 11.4566 19.3181 11.421 19.3617 11.4109L22.4796 10.7138C22.5232 10.7037 22.5587 10.7263 22.5692 10.7703L22.7097 11.3996C22.7194 11.4436 22.6968 11.4791 22.6532 11.4893L20.3701 11.9999C20.3403 12.0063 20.329 12.0245 20.3355 12.054L20.6075 13.2686C20.6139 13.298 20.6318 13.3093 20.6616 13.3029L22.5862 12.8722C22.6298 12.8621 22.6653 12.8851 22.6759 12.9291L22.8163 13.558C22.826 13.6024 22.8034 13.6379 22.7598 13.648L20.8352 14.0787C20.8053 14.0852 20.794 14.1029 20.8005 14.132L21.0822 15.3906C21.0887 15.4201 21.1065 15.4317 21.1364 15.4249L23.4194 14.9143C23.463 14.9046 23.4993 14.9272 23.5091 14.9712L23.6496 15.6005C23.6591 15.6441 23.6364 15.6805 23.5929 15.6901Z" fill="#FFFAFA"/>
</g>
<defs>
<clipPath id="clip0_159_651">
<rect width="30" height="30" fill="white"/>
</clipPath>
</defs>
</svg>
