<svg width="30" height="28" viewBox="0 0 30 28" fill="none" xmlns="http://www.w3.org/2000/svg">
<path fill-rule="evenodd" clip-rule="evenodd" d="M11.3107 16.0417C10.7744 16.0417 10.2806 16.3311 10.0221 16.7972C9.4831 17.7691 10.1922 18.9583 11.3107 18.9583H24.9999C25.8121 18.9583 26.4705 19.6112 26.4705 20.4167C26.4705 21.2221 25.8121 21.875 24.9999 21.875H23.5441H8.83816H8.82353C6.58824 21.875 5.17647 19.4979 6.25 17.5437L7.50462 15.295C7.96331 14.4729 7.99453 13.482 7.5885 12.6331L3.42951 3.93766C3.13128 3.31412 2.49759 2.91667 1.80168 2.91667H1.47059C0.658412 2.91667 0 2.26374 0 1.45833C0 0.652925 0.658412 0 1.47059 0H2.94697C4.08388 0 5.11898 0.64979 5.60538 1.66884L5.85623 2.19437C5.90351 2.18983 5.95146 2.1875 5.99994 2.1875H28.0588C28.871 2.1875 29.5294 2.84042 29.5294 3.64583C29.5294 4.04426 29.3682 4.40536 29.1071 4.66858C29.1541 4.97328 29.1038 5.29516 28.9423 5.58601L23.9705 14.5396C23.4705 15.4437 22.4999 16.0417 21.397 16.0417H11.3107ZM8.83816 21.875C10.4625 21.875 11.7793 23.1808 11.7793 24.7917C11.7793 26.4025 10.4625 27.7083 8.83816 27.7083C7.21379 27.7083 5.89698 26.4025 5.89698 24.7917C5.89698 23.1808 7.21379 21.875 8.83816 21.875ZM23.5441 21.875C21.9196 21.875 20.6029 23.1808 20.6029 24.7917C20.6029 26.4025 21.9196 27.7083 23.5441 27.7083C25.1685 27.7083 26.4852 26.4025 26.4852 24.7917C26.4852 23.1808 25.1685 21.875 23.5441 21.875Z" fill="white"/>
</svg>
