<svg width="60" height="60" viewBox="0 0 60 60" fill="none" xmlns="http://www.w3.org/2000/svg">
<path fill-rule="evenodd" clip-rule="evenodd" d="M29.7523 9.42847H29.5331C27.6399 9.42841 26.0612 9.42836 24.8079 9.59685C23.4851 9.77471 22.2907 10.1659 21.331 11.1257C20.3713 12.0854 19.98 13.2798 19.8022 14.6026C19.6814 15.501 19.6472 17.6494 19.6376 19.4915C15.3764 19.6306 12.8179 20.1281 11.04 21.9061C8.57129 24.3747 8.57129 28.3481 8.57129 36.2945C8.57129 44.241 8.57129 48.2144 11.04 50.6829C13.5086 53.1517 17.4819 53.1517 25.4284 53.1517H33.857C41.8035 53.1517 45.7769 53.1517 48.2454 50.6829C50.7141 48.2144 50.7141 44.241 50.7141 36.2945C50.7141 28.3481 50.7141 24.3747 48.2454 21.9061C46.4674 20.1281 43.9091 19.6306 39.6479 19.4915C39.6382 17.6494 39.604 15.501 39.4833 14.6026C39.3054 13.2798 38.9141 12.0854 37.9543 11.1257C36.9947 10.1659 35.8004 9.77471 34.4776 9.59685C33.2242 9.42836 31.6456 9.42841 29.7523 9.42847ZM36.4865 19.4414C36.477 17.6573 36.4467 15.7374 36.3508 15.0238C36.2199 14.0514 35.9941 13.6353 35.7195 13.3607C35.4449 13.086 35.0288 12.8601 34.0563 12.7294C33.0386 12.5926 31.674 12.5892 29.6427 12.5892C27.6114 12.5892 26.2468 12.5926 25.2291 12.7294C24.2567 12.8601 23.8406 13.086 23.566 13.3607C23.2914 13.6353 23.0654 14.0514 22.9347 15.0238C22.8388 15.7374 22.8084 17.6573 22.7989 19.4414C23.6237 19.4374 24.4989 19.4374 25.4284 19.4374H33.857C34.7867 19.4374 35.6618 19.4374 36.4865 19.4414ZM29.6427 26.2856C30.5155 26.2856 31.2231 26.9932 31.2231 27.866V27.8875C33.5173 28.4654 35.4374 30.2744 35.4374 32.7826C35.4374 33.6553 34.7298 34.3629 33.857 34.3629C32.9842 34.3629 32.2766 33.6553 32.2766 32.7826C32.2766 31.9734 31.3794 30.8512 29.6427 30.8512C27.906 30.8512 27.0088 31.9734 27.0088 32.7826C27.0088 33.5919 27.906 34.7142 29.6427 34.7142C32.5609 34.7142 35.4374 36.7366 35.4374 39.8065C35.4374 42.3146 33.5173 44.1236 31.2231 44.7016V44.7231C31.2231 45.5959 30.5155 46.3035 29.6427 46.3035C28.7699 46.3035 28.0624 45.5959 28.0624 44.7231V44.7016C25.7681 44.1236 23.8481 42.3146 23.8481 39.8065C23.8481 38.9337 24.5556 38.2262 25.4284 38.2262C26.3012 38.2262 27.0088 38.9337 27.0088 39.8065C27.0088 40.6157 27.906 41.7379 29.6427 41.7379C31.3794 41.7379 32.2766 40.6157 32.2766 39.8065C32.2766 38.9972 31.3794 37.8749 29.6427 37.8749C26.7245 37.8749 23.8481 35.8527 23.8481 32.7826C23.8481 30.2744 25.7681 28.4654 28.0624 27.8875V27.866C28.0624 26.9932 28.7699 26.2856 29.6427 26.2856Z" fill="#FF9B51"/>
</svg>
