<svg width="30" height="30" viewBox="0 0 30 30" fill="none" xmlns="http://www.w3.org/2000/svg">
<g clip-path="url(#clip0_159_649)">
<path fill-rule="evenodd" clip-rule="evenodd" d="M15.2923 4.09091H15.1623C14.0392 4.09088 13.1027 4.09085 12.3592 4.1908C11.5745 4.29631 10.866 4.5284 10.2966 5.09774C9.72728 5.66708 9.49519 6.37558 9.38968 7.16031C9.31803 7.69328 9.29776 8.96775 9.29203 10.0605C6.76422 10.1431 5.24649 10.4381 4.19176 11.4929C2.7273 12.9573 2.72729 15.3144 2.72729 20.0284C2.72729 24.7424 2.7273 27.0995 4.19176 28.5639C5.65622 30.0284 8.01324 30.0284 12.7273 30.0284H17.7273C22.4413 30.0284 24.7984 30.0284 26.2628 28.5639C27.7273 27.0995 27.7273 24.7424 27.7273 20.0284C27.7273 15.3144 27.7273 12.9573 26.2628 11.4929C25.208 10.4381 23.6904 10.1431 21.1625 10.0605C21.1568 8.96775 21.1365 7.69328 21.0649 7.16031C20.9594 6.37558 20.7273 5.66708 20.1579 5.09774C19.5887 4.5284 18.8802 4.29631 18.0954 4.1908C17.3519 4.09085 16.4154 4.09088 15.2923 4.09091ZM19.2872 10.0308C19.2815 8.97245 19.2635 7.8335 19.2067 7.41016C19.129 6.83333 18.995 6.58646 18.8322 6.42356C18.6693 6.26066 18.4224 6.12664 17.8455 6.04909C17.2418 5.96791 16.4323 5.96591 15.2273 5.96591C14.0223 5.96591 13.2128 5.96791 12.609 6.04909C12.0322 6.12664 11.7853 6.26066 11.6224 6.42356C11.4595 6.58646 11.3255 6.83333 11.248 7.41016C11.191 7.8335 11.1731 8.97245 11.1674 10.0308C11.6567 10.0284 12.1759 10.0284 12.7273 10.0284H17.7273C18.2788 10.0284 18.7979 10.0284 19.2872 10.0308ZM15.2273 14.0909C15.745 14.0909 16.1648 14.5106 16.1648 15.0284V15.0412C17.5258 15.384 18.6648 16.4572 18.6648 17.945C18.6648 18.4628 18.245 18.8825 17.7273 18.8825C17.2095 18.8825 16.7898 18.4628 16.7898 17.945C16.7898 17.465 16.2575 16.7993 15.2273 16.7993C14.197 16.7993 13.6648 17.465 13.6648 17.945C13.6648 18.4252 14.197 19.0909 15.2273 19.0909C16.9584 19.0909 18.6648 20.2907 18.6648 22.1118C18.6648 23.5997 17.5258 24.6728 16.1648 25.0157V25.0284C16.1648 25.5462 15.745 25.9659 15.2273 25.9659C14.7095 25.9659 14.2898 25.5462 14.2898 25.0284V25.0157C12.9288 24.6728 11.7898 23.5997 11.7898 22.1118C11.7898 21.594 12.2095 21.1743 12.7273 21.1743C13.245 21.1743 13.6648 21.594 13.6648 22.1118C13.6648 22.5918 14.197 23.2575 15.2273 23.2575C16.2575 23.2575 16.7898 22.5918 16.7898 22.1118C16.7898 21.6317 16.2575 20.9659 15.2273 20.9659C13.4962 20.9659 11.7898 19.7663 11.7898 17.945C11.7898 16.4572 12.9288 15.384 14.2898 15.0412V15.0284C14.2898 14.5106 14.7095 14.0909 15.2273 14.0909Z" fill="#25343F"/>
</g>
<defs>
<clipPath id="clip0_159_649">
<rect width="30" height="30" fill="white"/>
</clipPath>
</defs>
</svg>
