<svg width="50" height="50" viewBox="0 0 50 50" fill="none" xmlns="http://www.w3.org/2000/svg">
<g clip-path="url(#clip0_560_16)">
<path fill-rule="evenodd" clip-rule="evenodd" d="M1.15788 1.96779H20.9495C21.5249 1.96779 21.9912 2.43413 21.9912 3.00946V22.8011C21.9912 23.3765 21.5249 23.8428 20.9495 23.8428H1.15788C0.582552 23.8428 0.116211 23.3765 0.116211 22.8011V3.00946C0.116211 2.43413 0.582552 1.96779 1.15788 1.96779ZM37.8971 0.318506L49.6822 12.1037C50.0889 12.5104 50.0889 13.1699 49.6822 13.5768L37.897 25.3619C37.4902 25.7686 36.8307 25.7686 36.4239 25.3619L24.6388 13.5767C24.232 13.1699 24.232 12.5104 24.6388 12.1036L36.424 0.318506C36.8307 -0.088265 37.4902 -0.088265 37.8971 0.318506ZM1.15788 28.0095H20.9495C21.5249 28.0095 21.9912 28.4758 21.9912 29.0511V48.8428C21.9912 49.4181 21.5249 49.8845 20.9495 49.8845H1.15788C0.582552 49.8845 0.116211 49.4181 0.116211 48.8428V29.0511C0.116211 28.4758 0.582552 28.0095 1.15788 28.0095ZM27.1995 28.0095H46.9912C47.5665 28.0095 48.0329 28.4758 48.0329 29.0511V48.8428C48.0329 49.4181 47.5665 49.8845 46.9912 49.8845H27.1995C26.6242 49.8845 26.1579 49.4181 26.1579 48.8428V29.0511C26.1579 28.4758 26.6242 28.0095 27.1995 28.0095Z" fill="#FF9B51"/>
</g>
<defs>
<clipPath id="clip0_560_16">
<rect width="50" height="50" fill="white"/>
</clipPath>
</defs>
</svg>
