<svg width="31" height="31" viewBox="0 0 31 31" fill="none" xmlns="http://www.w3.org/2000/svg">
<path d="M26.2727 12.0384L8.18936 2.99675C7.47571 2.64155 6.66987 2.5151 5.88172 2.63463C5.09357 2.75417 4.36146 3.11387 3.78521 3.66469C3.20896 4.21552 2.81662 4.93066 2.66167 5.71262C2.50672 6.49458 2.59671 7.3053 2.91936 8.03425L6.01936 14.9705C6.0897 15.1382 6.12593 15.3182 6.12593 15.5001C6.12593 15.6819 6.0897 15.862 6.01936 16.0297L2.91936 22.9659C2.65677 23.5558 2.54576 24.202 2.59642 24.8458C2.64708 25.4895 2.85781 26.1104 3.20945 26.652C3.56109 27.1935 4.0425 27.6387 4.60993 27.9469C5.17735 28.2551 5.8128 28.4166 6.45853 28.4167C7.06333 28.4107 7.65912 28.2695 8.20228 28.0034L26.2856 18.9618C26.9271 18.6391 27.4662 18.1445 27.843 17.5333C28.2197 16.922 28.4192 16.2181 28.4192 15.5001C28.4192 14.7821 28.2197 14.0782 27.843 13.4669C27.4662 12.8556 26.9271 12.3611 26.2856 12.0384H26.2727ZM25.1231 16.6497L7.03978 25.6913C6.80232 25.8053 6.53568 25.844 6.27561 25.8022C6.01554 25.7604 5.77448 25.6401 5.58473 25.4574C5.39499 25.2746 5.26565 25.0383 5.21405 24.78C5.16245 24.5217 5.19105 24.2538 5.29603 24.0122L8.38311 17.0759C8.42308 16.9833 8.45758 16.8884 8.48645 16.7918H17.386C17.7286 16.7918 18.0571 16.6557 18.2994 16.4134C18.5416 16.1712 18.6777 15.8427 18.6777 15.5001C18.6777 15.1575 18.5416 14.829 18.2994 14.5867C18.0571 14.3445 17.7286 14.2084 17.386 14.2084H8.48645C8.45758 14.1118 8.42308 14.0169 8.38311 13.9243L5.29603 6.988C5.19105 6.74641 5.16245 6.4785 5.21405 6.22019C5.26565 5.96189 5.39499 5.72553 5.58473 5.54282C5.77448 5.3601 6.01554 5.23977 6.27561 5.19795C6.53568 5.15613 6.80232 5.19482 7.03978 5.30883L25.1231 14.3505C25.3347 14.4589 25.5123 14.6236 25.6362 14.8264C25.7602 15.0292 25.8258 15.2624 25.8258 15.5001C25.8258 15.7378 25.7602 15.9709 25.6362 16.1738C25.5123 16.3766 25.3347 16.5413 25.1231 16.6497Z" fill="black"/>
</svg>
