<svg width="50" height="50" viewBox="0 0 50 50" fill="none" xmlns="http://www.w3.org/2000/svg">
<path d="M13.6082 13.6082H13.6747ZM20.2009 0H16.129C10.4833 0 7.66048 -1.0575e-06 5.50413 1.09872C3.60733 2.06519 2.06519 3.60733 1.09872 5.50413C3.84546e-07 7.66048 0 10.4833 0 16.129V20.2009C0 22.6663 1.20171e-07 23.8992 0.278528 25.0595C0.525471 26.088 0.932762 27.0712 1.48548 27.9735C2.10887 28.9906 2.98061 29.8622 4.72409 31.6058L15.4768 42.3585C19.4689 46.3505 21.4649 48.3468 23.7665 49.0944C25.7913 49.7524 27.9721 49.7524 29.997 49.0944C32.2984 48.3468 34.2947 46.3505 38.2866 42.3585L42.3585 38.2866C46.3505 34.2947 48.3468 32.2984 49.0944 29.997C49.7524 27.9721 49.7524 25.7913 49.0944 23.7665C48.3468 21.4651 46.3505 19.4687 42.3585 15.4768L31.6058 4.72409C29.8622 2.98061 28.9906 2.10887 27.9735 1.48548C27.0712 0.932761 26.088 0.52547 25.0595 0.278528C23.8992 7.21024e-08 22.6663 0 20.2009 0ZM16.9355 13.6082C16.9355 15.4455 15.4459 16.9355 13.6082 16.9355C11.7706 16.9355 10.2809 15.4455 10.2809 13.6082C10.2809 11.7706 11.7706 10.2809 13.6082 10.2809C15.4459 10.2809 16.9355 11.7706 16.9355 13.6082Z" fill="black"/>
</svg>
