<svg width="27" height="30" viewBox="0 0 27 30" fill="none" xmlns="http://www.w3.org/2000/svg">
<g clip-path="url(#clip0_159_655)">
<path d="M21.41 5.8705L15.7122 0.172662C15.5827 0.0431653 15.4532 0 15.2806 0C14.9352 0 14.6762 0.258993 14.6762 0.604317V5.17985C14.6762 6.12949 15.4532 6.90647 16.4029 6.90647H20.9784C21.3237 6.90647 21.5827 6.64748 21.5827 6.30216C21.5827 6.12949 21.5395 6 21.41 5.8705ZM21.5827 10.3597C21.5827 9.88489 21.1942 9.4964 20.7194 9.4964H14.6762C13.2518 9.4964 12.0863 8.33093 12.0863 6.90647V0.863309C12.0863 0.388489 11.6978 0 11.223 0H2.58992C1.16547 0 0 1.16547 0 2.58993V23.3093C0 24.7338 1.16547 25.8993 2.58992 25.8993C2.58992 25.8993 10.6619 25.8993 11.3525 25.8993C12.0431 25.8993 12.2158 25.4244 12.1726 24.6906C12.1295 23.9568 11.8705 20.8057 14.0288 18.3022C16.187 15.7986 19.7266 15.6259 20.2446 15.6259C20.7626 15.6259 21.6259 15.5827 21.5827 14.8489C21.5395 14.1151 21.5827 10.3597 21.5827 10.3597ZM3.02158 5.43885L5.13668 5.13669C5.17985 5.13669 5.26618 5.09352 5.26618 5.05036L6.21582 3.10791C6.30215 2.97842 6.47481 2.97842 6.56114 3.10791L7.51078 5.05036C7.55395 5.09352 7.59711 5.13669 7.64028 5.13669L9.75538 5.43885C9.88488 5.48201 9.97121 5.65467 9.84171 5.741L8.28776 7.25179C8.24459 7.29496 8.24459 7.33813 8.24459 7.42446L8.58992 9.53957C8.63308 9.66906 8.46042 9.79856 8.33092 9.71223L6.43165 8.71942C6.38848 8.67626 6.30215 8.67626 6.25898 8.71942L4.35971 9.71223C4.23021 9.79856 4.05755 9.66906 4.10071 9.53957L4.44604 7.42446C4.44604 7.38129 4.44604 7.29496 4.40287 7.25179L2.84892 5.741C2.80575 5.65467 2.89208 5.48201 3.02158 5.43885ZM10.7914 19.8561C10.7914 20.3309 10.4029 20.7194 9.92804 20.7194H4.31654C3.84172 20.7194 3.45323 20.3309 3.45323 19.8561V18.9928C3.45323 18.518 3.84172 18.1295 4.31654 18.1295H9.92804C10.4029 18.1295 10.7914 18.518 10.7914 18.9928V19.8561ZM15.5395 14.6763C15.5395 15.1511 15.1511 15.5396 14.6762 15.5396H4.31654C3.84172 15.5396 3.45323 15.1511 3.45323 14.6763V13.8129C3.45323 13.3381 3.84172 12.9496 4.31654 12.9496H14.6762C15.1511 12.9496 15.5395 13.3381 15.5395 13.8129V14.6763Z" fill="white"/>
<path d="M20.2015 17.6547C16.7914 17.6547 14.0288 20.4173 14.0288 23.8274C14.0288 27.2374 16.7914 30 20.2015 30C23.6115 30 26.3741 27.2374 26.3741 23.8274C26.3741 20.4173 23.5684 17.6547 20.2015 17.6547ZM21.2806 24.3885C21.1079 24.3885 20.9353 24.3453 20.7626 24.3022L18.3885 26.6331C18.2159 26.8058 18.0432 26.8489 17.8705 26.8489C17.6547 26.8489 17.5252 26.8058 17.3525 26.6331C17.0936 26.3741 17.0936 25.8993 17.3525 25.5971L19.7266 23.223C19.6835 23.0935 19.6403 22.9209 19.6403 22.7482C19.554 21.6691 20.4173 20.6763 21.4964 20.6763C21.6691 20.6763 21.8417 20.7194 22.0144 20.7626C22.1007 20.7626 22.1007 20.8489 22.0576 20.9353L21.0216 22.0144C20.9353 22.0576 20.9353 22.2302 21.0216 22.2734L21.7554 23.0072C21.8417 23.0935 21.9712 23.0935 22.0576 23.0072L23.0935 21.9712C23.1367 21.9281 23.2662 21.9281 23.2662 22.0144C23.3094 22.1871 23.3525 22.3597 23.3525 22.5324C23.3094 23.6115 22.4029 24.4748 21.2806 24.3885Z" fill="white"/>
</g>
<defs>
<clipPath id="clip0_159_655">
<rect width="27" height="30" fill="white"/>
</clipPath>
</defs>
</svg>
