<svg width="30" height="30" viewBox="0 0 30 30" fill="none" xmlns="http://www.w3.org/2000/svg">
<path d="M12.9996 3.00009C12.8671 2.99829 12.7356 3.02283 12.6127 3.07228C12.4898 3.12173 12.378 3.1951 12.2837 3.28814C12.1894 3.38117 12.1145 3.49202 12.0634 3.61424C12.0122 3.73646 11.9859 3.86762 11.9859 4.00009H5.99959C5.86708 3.99822 5.73552 4.0227 5.61255 4.07211C5.48958 4.12153 5.37766 4.19489 5.28329 4.28793C5.18892 4.38098 5.11399 4.49185 5.06284 4.61411C5.01169 4.73636 4.98535 4.86757 4.98535 5.00009C4.98535 5.13262 5.01169 5.26382 5.06284 5.38608C5.11399 5.50834 5.18892 5.61921 5.28329 5.71225C5.37766 5.8053 5.48958 5.87866 5.61255 5.92807C5.73552 5.97748 5.86708 6.00197 5.99959 6.00009H23.9996C24.1321 6.00197 24.2637 5.97748 24.3866 5.92807C24.5096 5.87866 24.6215 5.8053 24.7159 5.71225C24.8103 5.61921 24.8852 5.50834 24.9363 5.38608C24.9875 5.26382 25.0138 5.13262 25.0138 5.00009C25.0138 4.86757 24.9875 4.73636 24.9363 4.61411C24.8852 4.49185 24.8103 4.38098 24.7159 4.28793C24.6215 4.19489 24.5096 4.12153 24.3866 4.07211C24.2637 4.0227 24.1321 3.99822 23.9996 4.00009H18.0133C18.0133 3.86762 17.9869 3.73646 17.9358 3.61424C17.8847 3.49202 17.8098 3.38117 17.7155 3.28814C17.6212 3.1951 17.5094 3.12173 17.3865 3.07228C17.2636 3.02283 17.1321 2.99829 16.9996 3.00009H12.9996ZM5.99959 8.00009V24.0001C5.99959 25.1051 6.89459 26.0001 7.99959 26.0001H21.9996C23.1046 26.0001 23.9996 25.1051 23.9996 24.0001V8.00009H5.99959Z" fill="white"/>
</svg>
