<svg width="50" height="50" viewBox="0 0 50 50" fill="none" xmlns="http://www.w3.org/2000/svg">
<g clip-path="url(#clip0_559_6)">
<path d="M54.9016 -4.90186H-4.90234V54.9021H54.9016V-4.90186Z" fill="white"/>
<path fill-rule="evenodd" clip-rule="evenodd" d="M10.0488 15.0328C10.0488 6.77557 16.7426 0.0817871 24.9998 0.0817871C33.257 0.0817871 39.9508 6.77557 39.9508 15.0328C39.9508 23.2899 33.257 29.9837 24.9998 29.9837C16.7426 29.9837 10.0488 23.2899 10.0488 15.0328Z" fill="#323232"/>
<path fill-rule="evenodd" clip-rule="evenodd" d="M8.63117 37.2162C12.6802 35.5187 18.0811 34.9673 25.0001 34.9673C31.905 34.9673 37.2976 35.5165 41.3431 37.2052C45.6853 39.0178 48.3506 42.0972 49.7714 46.576C50.2992 48.2405 49.0508 49.9183 47.3249 49.9183H2.65987C0.941079 49.9183 -0.299927 48.248 0.223631 46.5927C1.64016 42.1141 4.296 39.0335 8.63117 37.2162Z" fill="#323232"/>
</g>
<defs>
<clipPath id="clip0_559_6">
<rect width="50" height="50" fill="white"/>
</clipPath>
</defs>
</svg>
